<?xml version="1.0" encoding="iso-8859-1"?>
<!-- Uploaded to: SVG Repo, www.svgrepo.com, Generator: SVG Repo Mixer Tools -->
<svg height="50px" width="50px" version="1.1" id="Layer_1" xmlns="http://www.w3.org/2000/svg" xmlns:xlink="http://www.w3.org/1999/xlink" 
	 viewBox="0 0 512 512" xml:space="preserve">
<g transform="translate(1 1)">
	<path style="fill:#FDCC00;" d="M370.55,502.467H148.026c-13.952,0-25.267-11.315-25.267-25.276V32.809
		c0-13.96,11.315-25.276,25.267-25.276H370.55c13.96,0,25.276,11.315,25.276,25.276v444.382
		C395.826,491.152,384.51,502.467,370.55,502.467"/>
	<g>
		<polygon style="fill:#FFE100;" points="122.733,434.132 395.8,434.132 395.8,58.665 122.733,58.665 		"/>
		<path style="fill:#FFE100;" d="M285.071,468.333c0,14.14-11.46,25.6-25.6,25.6c-14.14,0-25.6-11.46-25.6-25.6
			c0-14.14,11.46-25.6,25.6-25.6C273.611,442.733,285.071,454.194,285.071,468.333"/>
	</g>
	<path style="fill:#FFA800;" d="M370.601,7.533h-25.6c13.96,0,25.276,11.315,25.276,25.276v444.382
		c0,13.96-11.315,25.276-25.276,25.276h25.6c13.96,0,25.276-11.315,25.276-25.276V32.809
		C395.877,18.848,384.562,7.533,370.601,7.533"/>
	<path style="fill:#FFFFFF;" d="M148.052,7.533h25.6c-13.96,0-25.276,11.315-25.276,25.276v444.382
		c0,13.96,11.315,25.276,25.276,25.276h-25.6c-13.96,0-25.276-11.315-25.276-25.276V32.809
		C122.776,18.848,134.1,7.533,148.052,7.533"/>
	<path style="fill:#00DA6C;" d="M346.87,293.801c-6.238-11.793-29.244-25.276-29.244-25.276c-5.205-2.961-11.486-3.294-14.455,1.997
		c0,0-7.475,8.96-9.378,10.248c-8.687,5.888-16.725,5.658-24.849-2.466l-18.876-18.867l-18.876-18.876
		c-8.115-8.124-8.346-16.162-2.458-24.849c1.289-1.903,10.248-9.378,10.248-9.378c5.291-2.97,4.958-9.25,1.997-14.455
		c0,0-13.491-23.006-25.276-29.244c-5.018-2.654-11.17-1.724-15.189,2.287l-8.329,8.337c-26.445,26.436-13.423,56.286,13.013,82.722
		l24.158,24.166l24.166,24.158c26.436,26.436,56.286,39.458,82.722,13.013l8.337-8.337
		C348.594,304.971,349.524,298.819,346.87,293.801"/>
	<path d="M370.524,511H148.001c-18.637,0-33.801-15.164-33.801-33.809V32.809C114.2,14.164,129.364-1,148.001-1h222.524
		c18.645,0,33.809,15.164,33.809,33.809v444.382C404.333,495.836,389.17,511,370.524,511z M148.001,16.067
		c-9.224,0-16.734,7.509-16.734,16.742v444.382c0,9.233,7.509,16.742,16.734,16.742h222.524c9.233,0,16.742-7.509,16.742-16.742
		V32.809c0-9.233-7.509-16.742-16.742-16.742H148.001z"/>
	<path d="M404.333,442.733H114.2V50.2h290.133V442.733z M131.267,425.667h256v-358.4h-256V425.667z"/>
	<path d="M293.4,41.667h-42.667c-4.71,0-8.533-3.823-8.533-8.533s3.823-8.533,8.533-8.533H293.4c4.719,0,8.533,3.823,8.533,8.533
		S298.119,41.667,293.4,41.667z"/>
	<path d="M225.133,41.667H216.6c-4.71,0-8.533-3.823-8.533-8.533S211.89,24.6,216.6,24.6h8.533c4.71,0,8.533,3.823,8.533,8.533
		S229.844,41.667,225.133,41.667z"/>
	<path d="M114.2,101.4c-4.71,0-8.533-3.823-8.533-8.533v-8.533c0-4.71,3.823-8.533,8.533-8.533s8.533,3.823,8.533,8.533v8.533
		C122.733,97.577,118.91,101.4,114.2,101.4z"/>
	<path d="M114.2,135.533c-4.71,0-8.533-3.823-8.533-8.533v-8.533c0-4.71,3.823-8.533,8.533-8.533s8.533,3.823,8.533,8.533V127
		C122.733,131.71,118.91,135.533,114.2,135.533z"/>
	<path d="M114.2,169.667c-4.71,0-8.533-3.823-8.533-8.533V152.6c0-4.71,3.823-8.533,8.533-8.533s8.533,3.823,8.533,8.533v8.533
		C122.733,165.844,118.91,169.667,114.2,169.667z"/>
	<path d="M259.267,502.467c-18.824,0-34.133-15.309-34.133-34.133c0-18.824,15.309-34.133,34.133-34.133
		c18.824,0,34.133,15.309,34.133,34.133C293.4,487.158,278.091,502.467,259.267,502.467z M259.267,451.267
		c-9.412,0-17.067,7.654-17.067,17.067c0,9.412,7.654,17.067,17.067,17.067c9.412,0,17.067-7.654,17.067-17.067
		C276.333,458.921,268.679,451.267,259.267,451.267z"/>
	<path d="M304.57,340.316c-3.814,0-7.689-0.452-11.605-1.357c-14.549-3.371-29.841-12.988-45.474-28.621l-48.324-48.324
		c-15.624-15.624-25.25-30.925-28.621-45.474c-4.147-17.92,1.246-34.97,15.608-49.314l8.329-8.337
		c6.716-6.699,16.845-8.218,25.216-3.806c13.542,7.177,27.145,29.901,28.646,32.478c3.14,5.521,4.07,11.281,2.671,16.333
		c-1.101,3.959-3.533,7.202-7.066,9.421c-3.447,2.901-7.509,6.494-8.405,7.535c-3.592,5.333-3.243,8.747,1.69,13.688l37.752,37.743
		c4.932,4.932,8.354,5.274,14.029,1.425c0.725-0.648,4.301-4.693,7.194-8.132c2.219-3.533,5.453-5.965,9.412-7.066
		c5.069-1.416,10.82-0.486,16.239,2.603c2.671,1.57,25.404,15.164,32.563,28.706v0.009c4.437,8.371,2.91,18.509-3.789,25.199
		l-8.346,8.337C331.066,334.565,318.207,340.316,304.57,340.316z M209.654,169.667c-1.135,0-2.261,0.444-3.115,1.297l-8.32,8.329
		c-10.266,10.266-13.875,21.188-11.051,33.416c2.637,11.384,10.726,23.919,24.055,37.248l48.324,48.324
		c13.337,13.329,25.865,21.427,37.257,24.055c12.228,2.824,23.142-0.793,33.399-11.051l8.346-8.337
		c1.365-1.365,1.673-3.439,0.777-5.154l0,0c-3.729-7.023-17.937-17.169-26.018-21.905c-1.707-0.964-2.91-0.956-3.14-0.939
		l-0.452,1.049c-8.252,9.882-10.359,11.307-11.153,11.853c-12.348,8.354-25.02,7.134-35.661-3.499l-37.752-37.743
		c-10.633-10.641-11.87-23.304-3.49-35.669c0.537-0.793,1.963-2.901,11.844-11.145l1.246-0.87c-0.171,0-0.265-1.16-1.203-2.816
		c-4.702-7.996-14.857-22.221-21.854-25.924C211.062,169.829,210.354,169.667,209.654,169.667z"/>
	<path d="M310.467,237.933c-4.719,0-8.533-3.823-8.533-8.533c0-14.114-11.486-25.6-25.6-25.6c-4.719,0-8.533-3.823-8.533-8.533
		s3.814-8.533,8.533-8.533c23.526,0,42.667,19.14,42.667,42.667C319,234.11,315.186,237.933,310.467,237.933z"/>
	<path d="M344.6,237.933c-4.719,0-8.533-3.823-8.533-8.533c0-32.939-26.803-59.733-59.733-59.733c-4.719,0-8.533-3.823-8.533-8.533
		s3.814-8.533,8.533-8.533c42.351,0,76.8,34.458,76.8,76.8C353.133,234.11,349.319,237.933,344.6,237.933z"/>
</g>
</svg>