<svg id="Layer_1" data-name="Layer 1" xmlns="http://www.w3.org/2000/svg" viewBox="0 0 122.88 114.47"><defs><style>.cls-1{fill:#212121;}.cls-1,.cls-2{fill-rule:evenodd;}.cls-2{fill:#f44336;}</style></defs><title>check-in</title><path class="cls-1" d="M25.32,74.55a3.59,3.59,0,0,1,0,7.18H18.58L9.7,107.31H112.93l-9.64-25.58H97.72a3.59,3.59,0,0,1,0-7.18h10.7l14.46,39.92H0L13.32,74.55Z"/><path class="cls-2" d="M78.82,82.79A69,69,0,0,1,63.7,95.3a2.14,2.14,0,0,1-2.43.08,85.24,85.24,0,0,1-21-18.76C32.57,67,27.74,56.35,26.09,46.08S26,25.66,31.16,17.52A35,35,0,0,1,39,8.84C46.3,3,54.65-.06,63,0A33.76,33.76,0,0,1,85.71,9.28a33.45,33.45,0,0,1,6.07,7.39c5.57,9.17,6.77,20.87,4.32,32.73A71.94,71.94,0,0,1,78.82,82.76v0ZM61.37,12.29A24.1,24.1,0,1,1,37.28,36.38,24.11,24.11,0,0,1,61.37,12.29Z"/><path class="cls-1" d="M53.5,30.42,59,35.7,68.58,26c1-1,1.54-1.74,2.71-.54l3.77,3.87c1.25,1.23,1.18,1.95,0,3.08L61.2,46c-2.47,2.41-2,2.56-4.54.08l-9.52-9.46a1.09,1.09,0,0,1,.1-1.7l4.39-4.55c.65-.68,1.18-.64,1.87,0Z"/></svg>