<svg xmlns="http://www.w3.org/2000/svg" shape-rendering="geometricPrecision" text-rendering="geometricPrecision" image-rendering="optimizeQuality" fill-rule="evenodd" clip-rule="evenodd" viewBox="0 0 397 511.911"><path fill="#1A1A1A" d="M62.087 0h168.92c17.125 0 32.753 6.988 43.891 18.212 11.293 11.306 18.184 26.85 18.184 43.89v36.586c-2.371-.11-4.755-.173-7.154-.173-4.28 0-8.515.188-12.704.538V61.507H19.771v364.164h253.453v-26.146c4.189.35 8.424.537 12.704.537a154.3 154.3 0 007.154-.172v49.934c0 17.138-6.975 32.766-18.184 43.891-11.322 11.321-26.85 18.196-43.891 18.196H62.087c-17.138 0-32.765-6.972-43.89-18.196C6.89 482.421 0 466.878 0 449.824V62.018c0-17.14 6.975-32.767 18.197-43.905C29.49 6.819 44.949 0 62.087 0zm84.376 445.096c14.046 0 25.523 11.308 25.523 25.523 0 14.061-11.306 25.538-25.523 25.538-14.046 0-25.538-11.307-25.538-25.538 0-14.031 11.309-25.523 25.538-25.523z"/><path fill="#00A912" d="M285.928 138.216c61.364 0 111.072 49.739 111.072 111.072 0 61.364-49.74 111.072-111.072 111.072-61.364 0-111.073-49.74-111.073-111.072 0-61.366 49.74-111.072 111.073-111.072zm-35.903 94.85l19.688 18.593 49.388-50.017c3.857-3.916 6.274-7.055 11.025-2.161l15.426 15.803c5.068 5.01 4.809 7.945.032 12.608l-67.062 66.023c-10.075 9.875-8.32 10.48-18.538.347l-35.921-35.722c-2.132-2.304-1.902-4.634.428-6.937l17.907-18.569c2.713-2.856 4.874-2.607 7.627.032z"/></svg>