<?xml version="1.0" encoding="UTF-8"?>
<svg xmlns="http://www.w3.org/2000/svg" xmlns:xlink="http://www.w3.org/1999/xlink" width="50px" height="50px" viewBox="0 0 50 50" version="1.1">
<g id="surface1">
<path style=" stroke:none;fill-rule:nonzero;fill:rgb(92.941176%,92.941176%,92.941176%);fill-opacity:1;" d="M 44.082031 4.167969 C 45.046875 4.167969 45.832031 4.953125 45.832031 5.917969 L 45.832031 44.082031 C 45.832031 45.046875 45.046875 45.832031 44.082031 45.832031 L 5.917969 45.832031 C 4.949219 45.832031 4.167969 45.050781 4.167969 44.082031 L 4.167969 5.917969 C 4.167969 4.953125 4.953125 4.167969 5.917969 4.167969 L 44.082031 4.167969 M 44.082031 2.082031 L 5.917969 2.082031 C 3.800781 2.082031 2.082031 3.800781 2.082031 5.917969 L 2.082031 44.082031 C 2.082031 46.199219 3.800781 47.917969 5.917969 47.917969 L 44.082031 47.917969 C 46.199219 47.917969 47.917969 46.199219 47.917969 44.082031 L 47.917969 5.917969 C 47.917969 3.800781 46.199219 2.082031 44.082031 2.082031 Z M 44.082031 2.082031 "/>
<path style=" stroke:none;fill-rule:nonzero;fill:rgb(92.941176%,92.941176%,92.941176%);fill-opacity:1;" d="M 28.175781 22.449219 L 40.585938 8.332031 L 37.644531 8.332031 L 26.863281 20.585938 L 18.261719 8.332031 L 8.332031 8.332031 L 21.347656 26.863281 L 8.332031 41.667969 L 11.273438 41.667969 L 22.652344 28.722656 L 31.738281 41.667969 L 41.667969 41.667969 Z M 24.144531 27.027344 L 22.824219 25.179688 L 12.332031 10.503906 L 16.855469 10.503906 L 25.324219 22.355469 L 26.636719 24.199219 L 37.644531 39.605469 L 33.125 39.605469 Z M 24.144531 27.027344 "/>
</g>
</svg>
